<svg xmlns="http://www.w3.org/2000/svg" version="1.1" xmlns:xlink="http://www.w3.org/1999/xlink" xmlns:svgjs="http://svgjs.dev/svgjs" viewBox="0 0 800 800"><defs><linearGradient x1="50%" y1="0%" x2="50%" y2="100%" id="ffflurry-grad" gradientTransform="rotate(270)"><stop stop-color="hsl(238, 82%, 13%)" stop-opacity="1" offset="0%"></stop><stop stop-color="hsl(1.4, 100%, 67%)" stop-opacity="1" offset="45%"></stop><stop stop-color="hsl(167, 52%, 78%)" stop-opacity="1" offset="100%"></stop></linearGradient></defs><rect width="100%" height="100%" fill="hsl(238, 82%, 13%)"></rect><g fill="url(#ffflurry-grad)"><rect width="160" height="3" x="22" y="679.5" rx="1.5" transform="rotate(45, 102, 681)" opacity="0.19"></rect><rect width="643" height="3" x="35.5" y="494.5" rx="1.5" transform="rotate(45, 357, 496)" opacity="0.09"></rect><rect width="518" height="3" x="418" y="732.5" rx="1.5" transform="rotate(45, 677, 734)" opacity="0.58"></rect><rect width="114" height="3" x="114" y="631.5" rx="1.5" transform="rotate(45, 171, 633)" opacity="0.66"></rect><rect width="97" height="3" x="13.5" y="44.5" rx="1.5" transform="rotate(45, 62, 46)" opacity="0.08"></rect><rect width="521" height="3" x="253.5" y="745.5" rx="1.5" transform="rotate(45, 514, 747)" opacity="0.74"></rect><rect width="572" height="3" x="266" y="326.5" rx="1.5" transform="rotate(45, 552, 328)" opacity="0.43"></rect><rect width="103" height="3" x="206.5" y="187.5" rx="1.5" transform="rotate(45, 258, 189)" opacity="0.07"></rect><rect width="272" height="3" x="427" y="235.5" rx="1.5" transform="rotate(45, 563, 237)" opacity="0.22"></rect><rect width="514" height="3" x="118" y="719.5" rx="1.5" transform="rotate(45, 375, 721)" opacity="0.89"></rect><rect width="315" height="3" x="609.5" y="244.5" rx="1.5" transform="rotate(45, 767, 246)" opacity="0.49"></rect><rect width="174" height="3" x="210" y="60.5" rx="1.5" transform="rotate(45, 297, 62)" opacity="0.93"></rect><rect width="390" height="3" x="43" y="754.5" rx="1.5" transform="rotate(45, 238, 756)" opacity="0.86"></rect><rect width="482" height="3" x="37" y="253.5" rx="1.5" transform="rotate(45, 278, 255)" opacity="0.66"></rect><rect width="200" height="3" x="-28" y="344.5" rx="1.5" transform="rotate(45, 72, 346)" opacity="0.32"></rect><rect width="102" height="3" x="697" y="380.5" rx="1.5" transform="rotate(45, 748, 382)" opacity="0.82"></rect><rect width="167" height="3" x="134.5" y="315.5" rx="1.5" transform="rotate(45, 218, 317)" opacity="0.13"></rect><rect width="87" height="3" x="622.5" y="635.5" rx="1.5" transform="rotate(45, 666, 637)" opacity="0.98"></rect><rect width="622" height="3" x="266" y="658.5" rx="1.5" transform="rotate(45, 577, 660)" opacity="0.52"></rect><rect width="234" height="3" x="-92" y="563.5" rx="1.5" transform="rotate(45, 25, 565)" opacity="0.89"></rect><rect width="237" height="3" x="505.5" y="779.5" rx="1.5" transform="rotate(45, 624, 781)" opacity="0.50"></rect><rect width="248" height="3" x="-64" y="759.5" rx="1.5" transform="rotate(45, 60, 761)" opacity="0.43"></rect><rect width="411" height="3" x="327.5" y="424.5" rx="1.5" transform="rotate(45, 533, 426)" opacity="0.65"></rect><rect width="232" height="3" x="333" y="182.5" rx="1.5" transform="rotate(45, 449, 184)" opacity="0.56"></rect><rect width="180" height="3" x="674" y="28.5" rx="1.5" transform="rotate(45, 764, 30)" opacity="0.53"></rect><rect width="509" height="3" x="421.5" y="218.5" rx="1.5" transform="rotate(45, 676, 220)" opacity="0.43"></rect><rect width="426" height="3" x="-173" y="143.5" rx="1.5" transform="rotate(45, 40, 145)" opacity="0.77"></rect><rect width="214" height="3" x="664" y="145.5" rx="1.5" transform="rotate(45, 771, 147)" opacity="0.60"></rect><rect width="122" height="3" x="320" y="606.5" rx="1.5" transform="rotate(45, 381, 608)" opacity="0.22"></rect><rect width="55" height="3" x="312.5" y="766.5" rx="1.5" transform="rotate(45, 340, 768)" opacity="0.79"></rect><rect width="473" height="3" x="524.5" y="680.5" rx="1.5" transform="rotate(45, 761, 682)" opacity="0.68"></rect><rect width="580" height="3" x="256" y="564.5" rx="1.5" transform="rotate(45, 546, 566)" opacity="0.24"></rect><rect width="313" height="3" x="131.5" y="768.5" rx="1.5" transform="rotate(45, 288, 770)" opacity="0.70"></rect><rect width="95" height="3" x="225.5" y="431.5" rx="1.5" transform="rotate(45, 273, 433)" opacity="0.13"></rect><rect width="107" height="3" x="577.5" y="414.5" rx="1.5" transform="rotate(45, 631, 416)" opacity="0.55"></rect><rect width="176" height="3" x="594" y="19.5" rx="1.5" transform="rotate(45, 682, 21)" opacity="0.92"></rect><rect width="670" height="3" x="124" y="527.5" rx="1.5" transform="rotate(45, 459, 529)" opacity="0.94"></rect><rect width="386" height="3" x="551" y="83.5" rx="1.5" transform="rotate(45, 744, 85)" opacity="0.83"></rect><rect width="172" height="3" x="79" y="742.5" rx="1.5" transform="rotate(45, 165, 744)" opacity="0.97"></rect><rect width="184" height="3" x="348" y="400.5" rx="1.5" transform="rotate(45, 440, 402)" opacity="0.40"></rect><rect width="127" height="3" x="413.5" y="280.5" rx="1.5" transform="rotate(45, 477, 282)" opacity="0.23"></rect><rect width="91" height="3" x="9.5" y="251.5" rx="1.5" transform="rotate(45, 55, 253)" opacity="0.87"></rect><rect width="145" height="3" x="386.5" y="72.5" rx="1.5" transform="rotate(45, 459, 74)" opacity="0.86"></rect><rect width="564" height="3" x="-121" y="246.5" rx="1.5" transform="rotate(45, 161, 248)" opacity="0.14"></rect><rect width="102" height="3" x="701" y="763.5" rx="1.5" transform="rotate(45, 752, 765)" opacity="0.94"></rect><rect width="48" height="3" x="18" y="489.5" rx="1.5" transform="rotate(45, 42, 491)" opacity="0.85"></rect><rect width="553" height="3" x="394.5" y="305.5" rx="1.5" transform="rotate(45, 671, 307)" opacity="0.67"></rect><rect width="395" height="3" x="-107.5" y="559.5" rx="1.5" transform="rotate(45, 90, 561)" opacity="0.23"></rect><rect width="98" height="3" x="185" y="127.5" rx="1.5" transform="rotate(45, 234, 129)" opacity="0.38"></rect><rect width="466" height="3" x="2" y="675.5" rx="1.5" transform="rotate(45, 235, 677)" opacity="0.37"></rect><rect width="158" height="3" x="663" y="593.5" rx="1.5" transform="rotate(45, 742, 595)" opacity="0.20"></rect><rect width="328" height="3" x="186" y="175.5" rx="1.5" transform="rotate(45, 350, 177)" opacity="0.68"></rect><rect width="693" height="3" x="406.5" y="498.5" rx="1.5" transform="rotate(45, 753, 500)" opacity="0.09"></rect><rect width="395" height="3" x="-63.5" y="149.5" rx="1.5" transform="rotate(45, 134, 151)" opacity="0.72"></rect><rect width="656" height="3" x="249" y="149.5" rx="1.5" transform="rotate(45, 577, 151)" opacity="0.69"></rect><rect width="42" height="3" x="320" y="389.5" rx="1.5" transform="rotate(45, 341, 391)" opacity="0.85"></rect><rect width="166" height="3" x="472" y="46.5" rx="1.5" transform="rotate(45, 555, 48)" opacity="0.25"></rect><rect width="358" height="3" x="-48" y="442.5" rx="1.5" transform="rotate(45, 131, 444)" opacity="0.71"></rect><rect width="414" height="3" x="163" y="61.5" rx="1.5" transform="rotate(45, 370, 63)" opacity="0.95"></rect><rect width="534" height="3" x="-104" y="559.5" rx="1.5" transform="rotate(45, 163, 561)" opacity="0.12"></rect><rect width="341" height="3" x="417.5" y="740.5" rx="1.5" transform="rotate(45, 588, 742)" opacity="0.11"></rect><rect width="433" height="3" x="-20.5" y="382.5" rx="1.5" transform="rotate(45, 196, 384)" opacity="1.00"></rect><rect width="525" height="3" x="-216.5" y="422.5" rx="1.5" transform="rotate(45, 46, 424)" opacity="0.38"></rect><rect width="350" height="3" x="256" y="767.5" rx="1.5" transform="rotate(45, 431, 769)" opacity="0.32"></rect><rect width="140" height="3" x="171" y="27.5" rx="1.5" transform="rotate(45, 241, 29)" opacity="0.40"></rect><rect width="211" height="3" x="228.5" y="316.5" rx="1.5" transform="rotate(45, 334, 318)" opacity="0.75"></rect><rect width="548" height="3" x="373" y="518.5" rx="1.5" transform="rotate(45, 647, 520)" opacity="0.31"></rect><rect width="209" height="3" x="544.5" y="71.5" rx="1.5" transform="rotate(45, 649, 73)" opacity="0.44"></rect><rect width="444" height="3" x="-188" y="655.5" rx="1.5" transform="rotate(45, 34, 657)" opacity="0.42"></rect><rect width="535" height="3" x="11.5" y="586.5" rx="1.5" transform="rotate(45, 279, 588)" opacity="0.25"></rect><rect width="53" height="3" x="669.5" y="150.5" rx="1.5" transform="rotate(45, 696, 152)" opacity="0.28"></rect><rect width="231" height="3" x="50.5" y="52.5" rx="1.5" transform="rotate(45, 166, 54)" opacity="0.71"></rect><rect width="240" height="3" x="278" y="275.5" rx="1.5" transform="rotate(45, 398, 277)" opacity="0.73"></rect><rect width="365" height="3" x="131.5" y="675.5" rx="1.5" transform="rotate(45, 314, 677)" opacity="0.43"></rect><rect width="108" height="3" x="196" y="520.5" rx="1.5" transform="rotate(45, 250, 522)" opacity="0.57"></rect><rect width="542" height="3" x="186" y="670.5" rx="1.5" transform="rotate(45, 457, 672)" opacity="0.26"></rect><rect width="218" height="3" x="82" y="482.5" rx="1.5" transform="rotate(45, 191, 484)" opacity="0.11"></rect></g></svg>